<svg xmlns="http://www.w3.org/2000/svg" viewBox="0 0 160 160" fill="none">
  <rect width="160" height="160" rx="40" fill="#2563EB"/>
  <path d="M34 94c10-1 17 1 28 11 7 6 14 9 24 9 12 0 21-4 38-18 2-2 6-2 8 0l7 7c2 2 2 6 0 8-19 16-34 23-54 23-18 0-30-5-44-17-7-6-11-7-18-7H20c-3 0-6-3-6-6v-4c0-3 3-6 6-6h14Z" fill="#fff"/>
  <path d="M46 53c13-14 35-14 48 0" stroke="#D7E6FF" stroke-linecap="round" stroke-width="8"/>
  <path d="M38 40c18-20 47-20 65 0" stroke="#fff" stroke-linecap="round" stroke-width="8"/>
</svg>
